<svg height="480pt" viewBox="0 0 480 480" width="480pt" xmlns="http://www.w3.org/2000/svg"><path d="m240 0c-132.546875 0-240 107.453125-240 240s107.453125 240 240 240 240-107.453125 240-240c-.148438-132.484375-107.515625-239.851562-240-240zm0 464c-123.710938 0-224-100.289062-224-224s100.289062-224 224-224 224 100.289062 224 224c-.140625 123.652344-100.347656 223.859375-224 224zm0 0"/><path d="m344 144h-208c-3.105469 0-5.933594 1.796875-7.25 4.609375s-.886719 6.132813 1.105469 8.519531l78.144531 93.765625v125.105469c0 2.949219 1.625 5.664062 4.226562 7.054688 2.601563 1.390624 5.757813 1.238281 8.214844-.398438l48-32c2.222656-1.484375 3.558594-3.980469 3.558594-6.65625v-93.105469l78.144531-93.765625c1.992188-2.386718 2.421875-5.707031 1.105469-8.519531s-4.144531-4.609375-7.25-4.609375zm-88 195.71875-32 21.335938v-105.054688h32zm4.257812-99.71875h-40.515624l-66.664063-80h173.84375zm0 0"/></svg>